<svg width="320" height="160" viewBox="0 0 320 160" fill="none" xmlns="http://www.w3.org/2000/svg">
<g clip-path="url(#clip0_15_2)">
<path d="M312 0H8C3.58172 0 0 3.58172 0 8V152C0 156.418 3.58172 160 8 160H312C316.418 160 320 156.418 320 152V8C320 3.58172 316.418 0 312 0Z" fill="#21232A"/>
<path d="M40.4649 91.5601C40.4649 91.5601 40.3424 92.5576 40.1149 93.3101C39.9224 93.9476 39.6174 94.4401 39.5899 95.0951C39.5674 95.6351 39.9924 96.0551 41.9874 96.0926C43.6824 96.1226 44.2699 95.5901 44.2174 94.8551C44.1674 94.1726 43.8774 93.6601 43.7199 92.8726C43.6074 92.3051 43.5274 91.6301 43.5274 91.6301L40.4649 91.5601Z" fill="#835D4E"/>
<path d="M42.7525 71.9824L38.385 73.6024L35.48 74.1024C35.48 74.1024 35.1325 74.5424 35.585 75.0599C35.9125 75.4324 36.4625 75.6999 37.215 75.7074C38.0625 75.7149 38.405 75.3824 38.5 75.6649C38.595 75.9474 37.425 76.6449 36.7825 77.0224C36.14 77.3999 34.04 78.0499 33.9475 78.9899C33.8775 79.7124 34.5975 80.1924 34.9525 80.3049C35.405 80.4474 36.0475 80.4174 36.235 80.4374C36.4225 80.4574 36.48 80.8149 36.215 81.0399C35.95 81.2674 35.235 81.5124 34.745 81.6999C34.255 81.8874 32.255 82.5499 31.99 82.6624C31.725 82.7749 31.425 83.2474 31.65 83.9449C31.8775 84.6424 32.6875 85.1699 33.4225 85.4349C34.1575 85.6999 34.365 85.5849 34.365 85.5849C34.365 85.5849 34.2625 85.9849 33.895 86.3174C33.5275 86.6499 32.365 87.8874 32.365 87.8874C32.365 87.8874 30.1675 87.9449 29.975 88.1024C29.7825 88.2599 29.66 88.6449 29.7475 89.0124C29.835 89.3799 30.115 90.3074 31.865 90.8149C33.615 91.3224 34.7875 90.8149 34.7875 90.8149C34.7875 90.8149 34.2075 91.9299 35.54 92.4599C36.545 92.8599 38.0775 92.3899 38.4625 92.2849C38.8475 92.1799 40.195 91.6199 40.195 91.6199C40.195 91.6199 40.5625 92.4999 42.05 92.5649C43.625 92.6349 44.7275 91.8649 44.7275 91.8649C44.7275 91.8649 46.9075 93.1974 48.5775 92.4949C49.785 91.9874 49.4 90.7799 49.4 90.7799C49.4 90.7799 51.5175 91.1474 53.0575 90.5349C54.5975 89.9224 54.8425 89.0824 54.8425 88.6624C54.8425 88.2424 54.23 87.8874 53.95 87.9049C53.67 87.9224 52.8475 87.8224 52.3575 87.6124C51.8675 87.4024 51.2075 87.0599 51.2075 87.0599C51.2075 87.0599 50.0625 86.6849 49.3125 86.0374C49 85.7699 49.0325 85.4949 49.4875 85.4774C49.9425 85.4599 51.3225 85.4724 52.1125 84.8999C52.9425 84.2974 52.9425 83.7599 52.9 83.5174C52.8375 83.1699 52.4675 83.0299 52.4675 83.0299C52.4675 83.0299 49.2975 82.0299 49.2275 81.9424C49.1575 81.8549 48.65 81.2774 48.5975 81.2249C48.545 81.1724 47.6525 80.8399 47.845 80.5774C48.0375 80.3149 49.05 80.3074 49.63 79.7024C50.3075 78.9949 50.12 78.3549 49.8925 78.1099C49.665 77.8649 49.255 77.7374 49.255 77.7374C49.255 77.7374 48.485 77.9649 48.2225 77.8424C47.96 77.7199 46.71 76.5199 46.71 76.5199C46.71 76.5199 45.6475 75.9274 45.66 75.7474C45.6775 75.5024 46.75 75.7549 47.6375 75.4674C48.435 75.2099 48.405 74.6599 48.355 74.4524C48.2775 74.1274 47.99 73.9924 47.7975 73.8524C47.6025 73.7149 42.7525 71.9824 42.7525 71.9824Z" fill="#0A7C1F"/>
<path d="M40.9725 68.7976C40.9725 68.7976 40.285 70.2276 39.1175 71.5276C37.2625 73.5926 35.46 74.1176 35.46 74.1176C35.46 74.1176 35.6875 74.7826 36.895 74.7476C38.26 74.7076 40.045 73.7326 40.045 73.7326C40.045 73.7326 40.57 74.9926 41.2175 75.7276C41.995 76.6101 42.91 77.2526 43.825 76.7776C44.17 76.5976 44.24 75.8476 43.825 75.3251C42.805 74.0401 43.4625 74.1351 43.535 74.2001C43.535 74.2001 44.3325 74.8176 45.8 74.8001C47.2675 74.7826 47.795 73.8551 47.795 73.8551C47.795 73.8551 45.975 72.8401 44.785 71.4576C43.595 70.0751 42.615 68.8851 42.615 68.8851L40.9725 68.7976Z" fill="#02AB48"/>
<path d="M40.2199 76.3201C40.2174 76.3226 39.3699 76.8676 38.4174 76.7926C38.0049 76.7601 37.7124 76.4526 37.7124 76.4526C37.7124 76.4526 36.7674 77.0076 36.2999 77.2476C35.7224 77.5451 34.9824 77.8401 34.5924 78.1226C34.3999 78.2626 34.1299 78.5601 34.1299 78.5601C34.1299 78.5601 34.2699 79.2076 35.4949 79.2076C36.7199 79.2076 37.5424 79.0501 38.2949 79.2601C39.0474 79.4701 40.2199 80.6426 41.0424 80.6426C41.8649 80.6426 42.4424 79.5401 43.2299 79.5401C44.0174 79.5401 44.2274 79.9426 45.4349 80.0651C46.6424 80.1876 48.5499 79.4876 48.9874 79.0676C49.5799 78.4976 49.2574 77.7376 49.2574 77.7376C49.2574 77.7376 48.4899 77.4301 47.7999 77.0951C47.2024 76.8051 46.7149 76.5301 46.7149 76.5301C46.7149 76.5301 46.4349 76.8451 46.1199 76.8276C45.8049 76.8101 45.3524 76.6301 44.9849 76.9101C44.6174 77.1901 44.3974 77.6301 43.6699 77.7376C41.8824 78.0001 40.2199 76.3201 40.2199 76.3201Z" fill="#02AB48"/>
<path d="M31.9799 82.6725C31.9799 82.6725 31.7249 83.5225 32.8999 84.05C34.0749 84.5775 36.2824 84.11 36.3849 84.2125C36.4874 84.315 34.5749 85.35 35.5749 86.1975C36.7699 87.21 39.8499 84.1925 40.0524 84.1925C40.2549 84.1925 40.3574 86.685 41.5924 87.13C42.8274 87.575 44.0424 85.7525 44.7924 85.53C45.5424 85.3075 46.0899 85.975 47.0599 86.015C48.3399 86.0675 48.9649 85.7325 49.0449 85.205C49.1249 84.6775 47.9924 83.7275 48.2349 83.525C48.4774 83.3225 48.9024 84.0725 50.6049 83.95C52.3074 83.8275 52.4774 83.03 52.4774 83.03L48.5874 81.2275C48.5874 81.2275 48.0524 81.865 47.2024 81.885C46.3524 81.905 44.2049 81.54 43.3549 81.7825C42.5049 82.025 42.2399 82.9975 40.8224 82.9375C39.4049 82.8775 38.4524 81.925 37.4799 82.39C36.5074 82.855 35.7949 83.45 35.2549 83.1175C34.9449 82.925 34.9774 82.65 35.0049 82.2225C35.0249 81.8975 35.1499 81.555 35.1499 81.555L31.9799 82.6725Z" fill="#02AB48"/>
<path d="M29.9651 88.1126C29.9651 88.1126 30.5101 89.6026 33.1676 89.6026C35.4376 89.6026 36.2351 88.3426 36.6651 87.9826C37.0926 87.6226 37.4026 87.1176 37.5401 87.3401C37.6776 87.5626 36.1676 89.1926 35.5501 89.7926C35.2051 90.1276 34.7776 90.7701 35.4301 91.1826C36.0826 91.5951 37.6076 91.4051 38.8426 90.8751C40.0776 90.3451 40.4376 89.2451 40.4376 89.2451C40.4376 89.2451 39.5126 88.8851 39.3401 87.7701C39.1676 86.6551 39.1176 86.1826 38.7576 86.1326C38.3976 86.0801 35.8326 88.1726 34.2451 87.4951C33.4901 87.1726 33.8826 86.3301 33.8826 86.3301C33.8826 86.3301 33.1551 86.9051 32.1776 87.2776C31.4301 87.5601 29.9651 88.1126 29.9651 88.1126Z" fill="#02AB48"/>
<path d="M40.9375 89.3299C40.9375 89.3299 40.6175 90.3299 40.6825 90.5749C40.805 91.0424 41.2625 91.5249 42.4125 91.4374C43.5625 91.3524 44.195 90.9224 44.18 90.5449C44.165 90.1674 43.425 89.2249 43.785 88.9849C44.145 88.7449 44.4025 89.2924 44.7625 89.8774C45.1225 90.4624 46.6825 92.3474 48.33 91.4549C49.8375 90.6374 47.815 89.0199 48.2275 88.7624C48.64 88.5049 49.6175 89.4124 51.1075 89.3449C53.7475 89.2249 54.1075 87.9224 54.1075 87.9224C54.1075 87.9224 53.095 87.6649 52.5125 87.5099C51.93 87.3549 51.2075 87.0624 51.2075 87.0624C51.2075 87.0624 50.025 87.6649 48.38 87.6124C46.735 87.5599 45.755 86.9099 45.0525 87.0299C44.35 87.1499 43.8175 88.1424 42.9425 88.7099C41.725 89.4999 40.9375 89.3299 40.9375 89.3299Z" fill="#02AB48"/>
<path d="M42.85 69.3824C42.835 69.4274 42.43 70.8799 41.9975 70.8799C41.5625 70.8799 40.845 69.3224 40.845 69.3224C40.845 69.3224 39.3275 69.2749 39.2575 69.0674C39.1675 68.7974 40.26 67.6449 40.26 67.6449C40.26 67.6449 40.065 66.0574 40.245 65.9074C40.4475 65.7374 41.8625 66.6849 41.8625 66.6849C41.8625 66.6849 43.3025 65.8624 43.54 66.0399C43.78 66.2199 43.345 67.5824 43.345 67.5824C43.345 67.5824 44.4975 68.5249 44.4075 68.7799C44.3175 69.0374 42.85 69.3824 42.85 69.3824Z" fill="#FCC11A"/>
<path d="M40.9325 66.385C40.87 66.435 40.99 66.75 41.3 67.1175C41.61 67.485 41.8275 67.79 41.895 67.8C41.9625 67.8075 42.415 67.23 42.5725 67.055C42.7325 66.88 42.92 66.5325 42.865 66.4775C42.765 66.3775 41.8775 66.9975 41.8775 66.9975C41.8775 66.9975 41.0375 66.3025 40.9325 66.385Z" fill="#FEE56B"/>
<path d="M39.4401 68.8925C39.5126 68.945 41.2826 68.28 41.3076 68.19C41.3351 68.085 40.7801 67.8475 40.6126 67.7975C40.4451 67.7475 40.1426 68.0075 39.8601 68.3175C39.6176 68.5775 39.3801 68.85 39.4401 68.8925Z" fill="#FEE56B"/>
<path d="M42.3626 71.4926C41.4726 71.5051 41.0776 72.1151 41.0876 72.8501C41.0976 73.5851 41.6251 74.0826 42.4551 74.0726C43.2851 74.0626 43.7176 73.4926 43.6876 72.6951C43.6626 72.0001 43.1701 71.4826 42.3626 71.4926Z" fill="#FF5F5E"/>
<path d="M45.7924 76.4501C44.9024 76.4626 44.3849 77.1226 44.3949 77.8576C44.4049 78.5926 44.9649 79.1626 45.8549 79.1526C46.7674 79.1426 47.2224 78.4901 47.1899 77.6926C47.1649 77.0001 46.5999 76.4401 45.7924 76.4501Z" fill="#FCD81E"/>
<path d="M39.8149 76.7074C38.8824 76.7199 38.3849 77.3649 38.3949 78.1474C38.4049 78.9299 39.0299 79.4849 39.8974 79.4724C40.7649 79.4624 41.2449 78.8399 41.2124 77.9924C41.1849 77.2524 40.6599 76.6974 39.8149 76.7074Z" fill="#DF0E2B"/>
<path d="M37.3525 81.4425C36.41 81.4525 35.945 82.1475 35.955 82.965C35.9675 83.7825 36.5375 84.3225 37.455 84.31C38.3725 84.2975 38.855 83.665 38.8225 82.7775C38.7925 82.0075 38.2475 81.4325 37.3525 81.4425Z" fill="#FFD2B1"/>
<path d="M42.6101 82.8651C41.6201 82.8776 41.1826 83.5551 41.1951 84.3726C41.2076 85.1901 41.7926 85.7426 42.7126 85.7301C43.6326 85.7176 44.1151 85.0851 44.0826 84.2001C44.0526 83.4301 43.5076 82.8551 42.6101 82.8651Z" fill="#FCD81E"/>
<path d="M47.3599 81.4525C46.3624 81.465 45.8749 82.1575 45.8849 82.985C45.8974 83.8125 46.4774 84.425 47.4074 84.415C48.3349 84.4025 48.8799 83.705 48.8449 82.8075C48.8174 82.025 48.2674 81.4425 47.3599 81.4525Z" fill="#FF5F5D"/>
<path d="M47.8726 88.5025C47.9176 87.59 47.3776 87.11 46.6276 87.065C45.8776 87.02 45.3101 87.4775 45.2576 88.325C45.2051 89.1725 45.7176 89.74 46.5326 89.7675C47.2426 89.7925 47.8301 89.375 47.8726 88.5025Z" fill="#C9C9C9"/>
<path d="M37.7625 87.1501C36.835 87.1626 36.425 87.7876 36.435 88.5401C36.445 89.2926 36.995 89.8026 37.8575 89.7926C38.72 89.7826 39.1725 89.1976 39.14 88.3826C39.115 87.6676 38.605 87.1376 37.7625 87.1501Z" fill="#FF5F5E"/>
<path d="M36.8875 88.5149C37.1575 88.6599 37.26 88.2674 37.395 88.1324C37.53 87.9974 37.85 87.7699 37.695 87.5724C37.54 87.3749 37.145 87.4874 36.96 87.6974C36.71 87.9774 36.6675 88.3974 36.8875 88.5149Z" fill="#F9FFFF"/>
<path d="M45.7526 88.475C46.0226 88.62 46.1376 88.225 46.2501 88.07C46.3951 87.8725 46.7476 87.7375 46.5926 87.5425C46.4376 87.345 46.0626 87.47 45.8776 87.6775C45.6276 87.9575 45.5326 88.355 45.7526 88.475Z" fill="#F9FFFF"/>
<path d="M46.44 82.9126C46.7375 83.0651 46.85 82.6351 46.995 82.4576C47.125 82.3001 47.505 82.1301 47.3325 81.9226C47.16 81.7151 46.755 81.8251 46.55 82.0426C46.275 82.3376 46.1975 82.7876 46.44 82.9126Z" fill="#F9FFFF"/>
<path d="M41.735 84.3425C42.005 84.4875 42.1075 84.095 42.2425 83.96C42.3775 83.825 42.6975 83.525 42.5425 83.3275C42.3875 83.13 42.005 83.255 41.8075 83.525C41.5875 83.8275 41.515 84.225 41.735 84.3425Z" fill="#F9FFFF"/>
<path d="M36.4625 82.9224C36.7325 83.0674 36.9025 82.6574 37.02 82.5074C37.2475 82.2174 37.465 82.0624 37.31 81.8649C37.155 81.6674 36.74 81.8349 36.535 82.1024C36.31 82.4024 36.245 82.8049 36.4625 82.9224Z" fill="#F9FFFF"/>
<path d="M38.9351 78.1375C39.2051 78.2825 39.3351 77.91 39.4426 77.755C39.6076 77.5175 39.9176 77.32 39.7626 77.1225C39.6076 76.925 39.2351 77.03 39.0076 77.32C38.7776 77.6125 38.7151 78.0175 38.9351 78.1375Z" fill="#F9FFFF"/>
<path d="M44.96 78.0101C45.255 78.1701 45.3675 77.7376 45.515 77.5901C45.6625 77.4426 46.015 77.1926 45.845 76.9776C45.675 76.7626 45.2425 76.8851 45.04 77.1126C44.765 77.4201 44.7175 77.8826 44.96 78.0101Z" fill="#F9FFFF"/>
<path d="M41.4725 72.8274C41.7425 72.9724 41.845 72.5799 41.98 72.4449C42.115 72.3099 42.435 72.0824 42.28 71.8849C42.125 71.6874 41.8125 71.7924 41.585 72.0599C41.345 72.3474 41.2525 72.7099 41.4725 72.8274Z" fill="#F9FFFF"/>
<path d="M38.6275 73.0649C38.2425 73.0649 38.0675 73.2299 38.0375 73.5724C38.0075 73.9049 38.215 74.1099 38.525 74.1324C38.96 74.1624 39.095 73.8024 39.095 73.5724C39.0925 73.3124 38.885 73.0649 38.6275 73.0649Z" fill="#F9C319"/>
<path d="M40.28 74.5325C39.955 74.3275 39.675 74.465 39.54 74.6325C39.3475 74.87 39.3775 75.2325 39.6475 75.38C40 75.5725 40.2825 75.425 40.3975 75.2525C40.5725 74.9925 40.52 74.685 40.28 74.5325Z" fill="#F9C319"/>
<path d="M41.7549 75.2251C41.4224 75.2876 41.2674 75.555 41.3324 75.8925C41.3824 76.1575 41.6749 76.345 41.9749 76.2725C42.3999 76.1725 42.4199 75.785 42.3499 75.5675C42.2749 75.3225 42.0099 75.1801 41.7549 75.2251Z" fill="#F9C319"/>
<path d="M45.9501 73.675C45.6476 73.4375 45.3376 73.5275 45.1801 73.725C45.0001 73.95 44.9851 74.2425 45.2126 74.4525C45.4826 74.7 45.8601 74.57 45.9926 74.4C46.1451 74.2075 46.1526 73.835 45.9501 73.675Z" fill="#F9C319"/>
<path d="M44.2301 75.0525C43.8426 75.0525 43.6651 75.2175 43.6326 75.5575C43.6026 75.8875 43.8226 76.1025 44.1351 76.125C44.5751 76.155 44.7001 75.785 44.7001 75.5575C44.7026 75.3 44.4926 75.0525 44.2301 75.0525Z" fill="#F9C319"/>
<path d="M37.2475 78.6775C36.8525 78.6775 36.6725 78.845 36.64 79.19C36.61 79.525 36.8225 79.7325 37.14 79.755C37.5875 79.7875 37.725 79.42 37.725 79.19C37.725 78.9275 37.5125 78.6775 37.2475 78.6775Z" fill="#F9C319"/>
<path d="M39.0275 80.0399C38.6475 79.9199 38.4425 80.0349 38.2875 80.3524C38.1625 80.6099 38.2875 80.9524 38.5925 81.0549C39.0325 81.1999 39.2575 80.9099 39.3275 80.6849C39.41 80.4299 39.2825 80.1199 39.0275 80.0399Z" fill="#F9C319"/>
<path d="M41.3876 81.6526C41.3776 81.2526 41.1926 81.0751 40.8251 81.0526C40.4651 81.0301 40.2526 81.2526 40.2376 81.5776C40.2176 82.0326 40.6101 82.1626 40.8551 82.1551C41.1351 82.1451 41.3951 81.9226 41.3876 81.6526Z" fill="#F9C319"/>
<path d="M43.2775 80.9551C42.865 80.9551 42.6775 81.1301 42.6425 81.4926C42.61 81.8451 42.8326 82.0601 43.1651 82.0851C43.6326 82.1176 43.7775 81.7351 43.7775 81.4926C43.7775 81.2176 43.555 80.9551 43.2775 80.9551Z" fill="#F9C319"/>
<path d="M45.6024 80.24C45.2174 80.24 45.0424 80.405 45.0124 80.7475C44.9824 81.08 45.1899 81.285 45.4999 81.3075C45.9349 81.3375 46.0699 80.9775 46.0699 80.7475C46.0674 80.49 45.8599 80.24 45.6024 80.24Z" fill="#F9C319"/>
<path d="M47.1426 79.7576C47.2201 80.1001 47.4851 80.2301 47.8176 80.1451C48.1401 80.0626 48.2651 79.8001 48.1826 79.5001C48.0676 79.0801 47.6801 79.0726 47.4651 79.1501C47.2226 79.2351 47.0876 79.5051 47.1426 79.7576Z" fill="#F9C319"/>
<path d="M50.4901 83.28C50.1251 83.28 49.9576 83.44 49.9276 83.7675C49.8976 84.0875 50.0951 84.285 50.3926 84.305C50.8076 84.335 50.9351 83.9875 50.9351 83.7675C50.9351 83.52 50.7376 83.28 50.4901 83.28Z" fill="#F9C319"/>
<path d="M49.3475 85.215C49.385 84.7925 49.2225 84.585 48.8525 84.5175C48.4925 84.4525 48.25 84.66 48.195 84.9975C48.1175 85.4725 48.5 85.655 48.75 85.6775C49.0325 85.7025 49.3225 85.5 49.3475 85.215Z" fill="#F9C319"/>
<path d="M46.7699 85.4751C46.3649 85.4926 46.1449 85.7701 46.1699 86.1701C46.1949 86.5601 46.4774 86.7576 46.8449 86.7251C47.3599 86.6801 47.4524 86.2376 47.4099 85.9726C47.3624 85.6751 47.0774 85.4601 46.7699 85.4751Z" fill="#F9C319"/>
<path d="M44.4249 86.3101C44.0124 86.2576 43.7649 86.5001 43.7274 86.8951C43.6924 87.2776 43.9374 87.5076 44.3024 87.5401C44.8924 87.5951 44.9749 87.1601 44.9749 86.8951C44.9749 86.5976 44.7274 86.3476 44.4249 86.3101Z" fill="#F9C319"/>
<path d="M41.4925 86.6299C41.0875 86.6474 40.8675 86.9249 40.8925 87.3249C40.9175 87.7149 41.2 87.9124 41.5675 87.8799C42.0825 87.8349 42.175 87.3924 42.1325 87.1274C42.0875 86.8299 41.8 86.6174 41.4925 86.6299Z" fill="#F9C319"/>
<path d="M38.9374 85.845C38.5399 85.8625 38.3324 86.1775 38.3499 86.5225C38.3674 86.9 38.6499 87.0925 39.0099 87.06C39.5149 87.015 39.6049 86.585 39.5649 86.33C39.5174 86.0375 39.2374 85.83 38.9374 85.845Z" fill="#F9C319"/>
<path d="M36.5399 84.8775C36.1424 84.895 35.9274 85.165 35.9524 85.5525C35.9774 85.93 36.2499 86.12 36.6099 86.0875C37.1149 86.0425 37.2049 85.615 37.1649 85.3575C37.1199 85.07 36.8399 84.865 36.5399 84.8775Z" fill="#F9C319"/>
<path d="M35.04 82.9799C34.6975 82.9949 34.5125 83.2299 34.535 83.5699C34.5575 83.8999 34.7925 84.0674 35.1025 84.0399C35.5375 84.0024 35.615 83.6274 35.5775 83.4024C35.54 83.1499 35.2975 82.9699 35.04 82.9799Z" fill="#F9C319"/>
<path d="M70.5256 89.5H66.571L72.5966 72.0455H77.3523L83.3693 89.5H79.4148L75.0426 76.0341H74.9062L70.5256 89.5ZM70.2784 82.6392H79.6193V85.5199H70.2784V82.6392ZM89.6165 89.7131C88.6222 89.7131 87.7216 89.4574 86.9148 88.946C86.1136 88.429 85.4773 87.6705 85.0057 86.6705C84.5398 85.6648 84.3068 84.4318 84.3068 82.9716C84.3068 81.4716 84.5483 80.2244 85.0312 79.2301C85.5142 78.2301 86.1563 77.483 86.9574 76.9886C87.7642 76.4886 88.6477 76.2386 89.608 76.2386C90.3409 76.2386 90.9517 76.3636 91.4403 76.6136C91.9347 76.858 92.3324 77.1648 92.6335 77.5341C92.9403 77.8977 93.1733 78.2557 93.3324 78.608H93.4432V72.0455H97.0653V89.5H93.4858V87.4034H93.3324C93.1619 87.767 92.9205 88.1278 92.608 88.4858C92.3011 88.8381 91.9006 89.1307 91.4062 89.3636C90.9176 89.5966 90.321 89.7131 89.6165 89.7131ZM90.767 86.8239C91.3523 86.8239 91.8466 86.6648 92.25 86.3466C92.6591 86.0227 92.9716 85.571 93.1875 84.9915C93.4091 84.4119 93.5199 83.733 93.5199 82.9545C93.5199 82.1761 93.4119 81.5 93.196 80.9261C92.9801 80.3523 92.6676 79.9091 92.2585 79.5966C91.8494 79.2841 91.3523 79.1278 90.767 79.1278C90.1705 79.1278 89.6676 79.2898 89.2585 79.6136C88.8494 79.9375 88.5398 80.3864 88.3295 80.9602C88.1193 81.5341 88.0142 82.1989 88.0142 82.9545C88.0142 83.7159 88.1193 84.3892 88.3295 84.9744C88.5455 85.554 88.8551 86.0085 89.2585 86.3381C89.6676 86.6619 90.1705 86.8239 90.767 86.8239ZM112.255 76.4091L107.678 89.5H103.587L99.0107 76.4091H102.846L105.565 85.7756H105.701L108.411 76.4091H112.255ZM119.657 89.7557C118.31 89.7557 117.151 89.483 116.18 88.9375C115.214 88.3864 114.469 87.608 113.947 86.6023C113.424 85.5909 113.163 84.3949 113.163 83.0142C113.163 81.6676 113.424 80.4858 113.947 79.4688C114.469 78.4517 115.205 77.6591 116.154 77.0909C117.109 76.5227 118.228 76.2386 119.512 76.2386C120.376 76.2386 121.18 76.3778 121.924 76.6562C122.674 76.929 123.327 77.3409 123.884 77.892C124.447 78.4432 124.884 79.1364 125.197 79.9716C125.509 80.8011 125.665 81.7727 125.665 82.8864V83.8835H114.612V81.6335H122.248C122.248 81.1108 122.134 80.6477 121.907 80.2443C121.68 79.8409 121.364 79.5256 120.961 79.2983C120.563 79.0653 120.1 78.9489 119.572 78.9489C119.021 78.9489 118.532 79.0767 118.106 79.3324C117.685 79.5824 117.356 79.9205 117.117 80.3466C116.879 80.767 116.756 81.2358 116.751 81.7528V83.892C116.751 84.5398 116.87 85.0994 117.109 85.571C117.353 86.0426 117.697 86.4062 118.14 86.6619C118.583 86.9176 119.109 87.0455 119.717 87.0455C120.12 87.0455 120.489 86.9886 120.825 86.875C121.16 86.7614 121.447 86.5909 121.685 86.3636C121.924 86.1364 122.106 85.858 122.231 85.5284L125.589 85.75C125.418 86.5568 125.069 87.2614 124.54 87.8636C124.018 88.4602 123.342 88.9261 122.512 89.2614C121.688 89.5909 120.737 89.7557 119.657 89.7557ZM131.665 81.9318V89.5H128.035V76.4091H131.495V78.7188H131.648C131.938 77.9574 132.424 77.3551 133.106 76.9119C133.788 76.4631 134.614 76.2386 135.586 76.2386C136.495 76.2386 137.288 76.4375 137.964 76.8352C138.64 77.233 139.165 77.8011 139.54 78.5398C139.915 79.2727 140.103 80.1477 140.103 81.1648V89.5H136.472V81.8125C136.478 81.0114 136.273 80.3864 135.859 79.9375C135.444 79.483 134.873 79.2557 134.146 79.2557C133.657 79.2557 133.225 79.3608 132.85 79.571C132.481 79.7812 132.191 80.0881 131.981 80.4915C131.776 80.8892 131.671 81.3693 131.665 81.9318ZM149.928 76.4091V79.1364H142.044V76.4091H149.928ZM143.834 73.2727H147.464V85.4773C147.464 85.8125 147.516 86.0739 147.618 86.2614C147.72 86.4432 147.862 86.571 148.044 86.6449C148.232 86.7187 148.447 86.7557 148.692 86.7557C148.862 86.7557 149.033 86.7415 149.203 86.7131C149.374 86.679 149.504 86.6534 149.595 86.6364L150.166 89.3381C149.984 89.3949 149.729 89.4602 149.399 89.5341C149.07 89.6136 148.669 89.6619 148.197 89.679C147.322 89.7131 146.555 89.5966 145.896 89.3295C145.243 89.0625 144.734 88.6477 144.371 88.0852C144.007 87.5227 143.828 86.8125 143.834 85.9545V73.2727ZM173.955 80.7727C173.955 82.6761 173.594 84.2955 172.873 85.6307C172.157 86.9659 171.18 87.9858 169.941 88.6903C168.708 89.3892 167.322 89.7386 165.782 89.7386C164.231 89.7386 162.839 89.3864 161.606 88.6818C160.373 87.9773 159.398 86.9574 158.683 85.6222C157.967 84.2869 157.609 82.6705 157.609 80.7727C157.609 78.8693 157.967 77.25 158.683 75.9148C159.398 74.5795 160.373 73.5625 161.606 72.8636C162.839 72.1591 164.231 71.8068 165.782 71.8068C167.322 71.8068 168.708 72.1591 169.941 72.8636C171.18 73.5625 172.157 74.5795 172.873 75.9148C173.594 77.25 173.955 78.8693 173.955 80.7727ZM170.214 80.7727C170.214 79.5398 170.029 78.5 169.66 77.6534C169.296 76.8068 168.782 76.1648 168.117 75.7273C167.452 75.2898 166.674 75.071 165.782 75.071C164.89 75.071 164.112 75.2898 163.447 75.7273C162.782 76.1648 162.265 76.8068 161.896 77.6534C161.532 78.5 161.35 79.5398 161.35 80.7727C161.35 82.0057 161.532 83.0455 161.896 83.892C162.265 84.7386 162.782 85.3807 163.447 85.8182C164.112 86.2557 164.89 86.4744 165.782 86.4744C166.674 86.4744 167.452 86.2557 168.117 85.8182C168.782 85.3807 169.296 84.7386 169.66 83.892C170.029 83.0455 170.214 82.0057 170.214 80.7727ZM183.661 76.4091V79.1364H175.581V76.4091H183.661ZM177.43 89.5V75.4631C177.43 74.5142 177.615 73.7273 177.984 73.1023C178.359 72.4773 178.871 72.0085 179.518 71.696C180.166 71.3835 180.902 71.2273 181.726 71.2273C182.283 71.2273 182.791 71.2699 183.251 71.3551C183.717 71.4403 184.064 71.517 184.291 71.5852L183.643 74.3125C183.501 74.267 183.325 74.2244 183.115 74.1847C182.911 74.1449 182.7 74.125 182.484 74.125C181.95 74.125 181.578 74.25 181.368 74.5C181.158 74.7443 181.053 75.0881 181.053 75.5312V89.5H177.43ZM206.902 78.1562H203.169C203.101 77.6733 202.962 77.2443 202.751 76.8693C202.541 76.4886 202.271 76.1648 201.942 75.8977C201.612 75.6307 201.232 75.4261 200.8 75.2841C200.374 75.142 199.911 75.071 199.411 75.071C198.507 75.071 197.72 75.2955 197.05 75.7443C196.379 76.1875 195.859 76.8352 195.49 77.6875C195.121 78.5341 194.936 79.5625 194.936 80.7727C194.936 82.017 195.121 83.0625 195.49 83.9091C195.865 84.7557 196.388 85.3949 197.058 85.8267C197.729 86.2585 198.504 86.4744 199.385 86.4744C199.879 86.4744 200.337 86.4091 200.757 86.2784C201.183 86.1477 201.561 85.9574 201.891 85.7074C202.22 85.4517 202.493 85.142 202.709 84.7784C202.93 84.4148 203.084 84 203.169 83.5341L206.902 83.5511C206.805 84.3523 206.564 85.125 206.178 85.8693C205.797 86.608 205.283 87.2699 204.635 87.8551C203.993 88.4347 203.226 88.8949 202.334 89.2358C201.447 89.571 200.445 89.7386 199.325 89.7386C197.768 89.7386 196.376 89.3864 195.149 88.6818C193.928 87.9773 192.962 86.9574 192.251 85.6222C191.547 84.2869 191.195 82.6705 191.195 80.7727C191.195 78.8693 191.553 77.25 192.268 75.9148C192.984 74.5795 193.956 73.5625 195.183 72.8636C196.411 72.1591 197.791 71.8068 199.325 71.8068C200.337 71.8068 201.274 71.9489 202.138 72.233C203.007 72.517 203.777 72.9318 204.447 73.4773C205.118 74.017 205.663 74.679 206.084 75.4631C206.51 76.2472 206.783 77.1449 206.902 78.1562ZM215.395 89.7557C214.071 89.7557 212.926 89.4744 211.96 88.9119C211 88.3437 210.259 87.554 209.736 86.5426C209.213 85.5256 208.952 84.3466 208.952 83.0057C208.952 81.6534 209.213 80.4716 209.736 79.4602C210.259 78.4432 211 77.6534 211.96 77.0909C212.926 76.5227 214.071 76.2386 215.395 76.2386C216.719 76.2386 217.861 76.5227 218.821 77.0909C219.787 77.6534 220.531 78.4432 221.054 79.4602C221.577 80.4716 221.838 81.6534 221.838 83.0057C221.838 84.3466 221.577 85.5256 221.054 86.5426C220.531 87.554 219.787 88.3437 218.821 88.9119C217.861 89.4744 216.719 89.7557 215.395 89.7557ZM215.412 86.9432C216.014 86.9432 216.517 86.7727 216.92 86.4318C217.324 86.0852 217.628 85.6136 217.832 85.017C218.043 84.4205 218.148 83.7415 218.148 82.9801C218.148 82.2188 218.043 81.5398 217.832 80.9432C217.628 80.3466 217.324 79.875 216.92 79.5284C216.517 79.1818 216.014 79.0085 215.412 79.0085C214.804 79.0085 214.293 79.1818 213.878 79.5284C213.469 79.875 213.159 80.3466 212.949 80.9432C212.744 81.5398 212.642 82.2188 212.642 82.9801C212.642 83.7415 212.744 84.4205 212.949 85.017C213.159 85.6136 213.469 86.0852 213.878 86.4318C214.293 86.7727 214.804 86.9432 215.412 86.9432ZM229.023 89.7131C228.028 89.7131 227.128 89.4574 226.321 88.946C225.52 88.429 224.884 87.6705 224.412 86.6705C223.946 85.6648 223.713 84.4318 223.713 82.9716C223.713 81.4716 223.955 80.2244 224.438 79.2301C224.92 78.2301 225.563 77.483 226.364 76.9886C227.17 76.4886 228.054 76.2386 229.014 76.2386C229.747 76.2386 230.358 76.3636 230.847 76.6136C231.341 76.858 231.739 77.1648 232.04 77.5341C232.347 77.8977 232.58 78.2557 232.739 78.608H232.849V72.0455H236.472V89.5H232.892V87.4034H232.739C232.568 87.767 232.327 88.1278 232.014 88.4858C231.707 88.8381 231.307 89.1307 230.812 89.3636C230.324 89.5966 229.727 89.7131 229.023 89.7131ZM230.173 86.8239C230.759 86.8239 231.253 86.6648 231.656 86.3466C232.065 86.0227 232.378 85.571 232.594 84.9915C232.815 84.4119 232.926 83.733 232.926 82.9545C232.926 82.1761 232.818 81.5 232.602 80.9261C232.386 80.3523 232.074 79.9091 231.665 79.5966C231.256 79.2841 230.759 79.1278 230.173 79.1278C229.577 79.1278 229.074 79.2898 228.665 79.6136C228.256 79.9375 227.946 80.3864 227.736 80.9602C227.526 81.5341 227.42 82.1989 227.42 82.9545C227.42 83.7159 227.526 84.3892 227.736 84.9744C227.952 85.554 228.261 86.0085 228.665 86.3381C229.074 86.6619 229.577 86.8239 230.173 86.8239ZM245.423 89.7557C244.076 89.7557 242.917 89.483 241.945 88.9375C240.979 88.3864 240.235 87.608 239.712 86.6023C239.19 85.5909 238.928 84.3949 238.928 83.0142C238.928 81.6676 239.19 80.4858 239.712 79.4688C240.235 78.4517 240.971 77.6591 241.92 77.0909C242.874 76.5227 243.994 76.2386 245.278 76.2386C246.141 76.2386 246.945 76.3778 247.69 76.6562C248.44 76.929 249.093 77.3409 249.65 77.892C250.212 78.4432 250.65 79.1364 250.962 79.9716C251.275 80.8011 251.431 81.7727 251.431 82.8864V83.8835H240.377V81.6335H248.013C248.013 81.1108 247.9 80.6477 247.673 80.2443C247.445 79.8409 247.13 79.5256 246.727 79.2983C246.329 79.0653 245.866 78.9489 245.337 78.9489C244.786 78.9489 244.298 79.0767 243.871 79.3324C243.451 79.5824 243.121 79.9205 242.883 80.3466C242.644 80.767 242.522 81.2358 242.516 81.7528V83.892C242.516 84.5398 242.636 85.0994 242.874 85.571C243.119 86.0426 243.462 86.4062 243.906 86.6619C244.349 86.9176 244.874 87.0455 245.482 87.0455C245.886 87.0455 246.255 86.9886 246.59 86.875C246.925 86.7614 247.212 86.5909 247.451 86.3636C247.69 86.1364 247.871 85.858 247.996 85.5284L251.354 85.75C251.184 86.5568 250.835 87.2614 250.306 87.8636C249.783 88.4602 249.107 88.9261 248.278 89.2614C247.454 89.5909 246.502 89.7557 245.423 89.7557Z" fill="white"/>
<path d="M278.458 77.6324L278.358 73.0249C278.358 73.0249 280.76 71.7549 281.22 70.9174C281.68 70.0799 281.49 68.6749 280.978 68.6224C280.465 68.5699 278.25 70.1899 278.063 69.9999C277.873 69.8099 278.98 68.4599 278.928 67.9474C278.873 67.4349 277.225 66.1799 277.225 66.1799L275.363 68.2974C275.363 68.2974 275.903 69.9724 275.823 70.1349C275.743 70.2974 273.203 68.7299 272.663 68.8374C272.123 68.9449 272.308 70.0424 272.495 70.5574C272.685 71.0699 276.145 72.6724 276.145 72.6724L275.995 77.7024C275.995 77.7024 275.363 77.6924 275.2 77.7749C275.038 77.8549 274.65 78.5049 274.65 78.5049C274.65 78.5049 271.013 76.5349 270.985 76.1299C270.958 75.7249 271.04 72.1049 270.85 71.7274C270.66 71.3499 269.85 70.9099 269.445 70.9099C269.04 70.9099 268.77 74.9124 268.528 74.9124C268.285 74.9124 267.365 72.5624 267.095 72.5624C266.825 72.5624 264.733 72.9124 264.733 72.9124L265.53 76.0999L268.015 76.6124L264.973 80.0524C264.973 80.0524 265.718 80.7774 266.42 80.6149C267.123 80.4524 269.148 78.4274 269.363 78.4274C269.578 78.4274 273.253 80.5349 273.253 80.5349C273.253 80.5349 273.09 80.9124 273.198 81.1299C273.305 81.3449 273.495 81.6149 273.495 81.6149C273.495 81.6149 269.85 83.8299 269.605 83.7749C269.36 83.7199 266.905 81.9649 266.203 81.9649C265.5 81.9649 265.068 82.8824 265.068 82.8824L267.985 85.3399L265.528 86.5549L264.475 88.7424C264.475 88.7424 266.853 89.5799 267.175 89.4974C267.498 89.4149 268.338 87.4174 268.498 87.3649C268.66 87.3099 268.72 87.8199 268.72 87.8199C268.72 87.8199 269.578 90.4999 269.903 90.4174C270.228 90.3349 271.038 89.8224 271.145 89.4174C271.253 89.0124 270.985 85.7999 270.985 85.7999L274.82 83.7174C274.82 83.7174 275.125 84.2124 275.333 84.3624C275.495 84.4799 276.303 84.5574 276.303 84.5574L276.195 88.7424C276.195 88.7424 272.195 90.4674 272.06 90.9524C271.925 91.4374 271.955 92.5224 272.335 92.6574C272.713 92.7924 275.663 91.4424 275.798 91.5499C275.933 91.6574 275.74 93.6549 275.74 93.6549C275.74 93.6549 277.325 95.8949 277.675 95.6799C278.025 95.4649 279.253 94.0899 279.263 93.8349C279.285 93.3524 278.083 91.6899 278.105 91.5924C278.153 91.3799 280.6 93.1424 281.033 93.0874C281.465 93.0324 281.788 92.5749 281.788 92.0599C281.788 91.5474 278.493 89.1174 278.493 89.1174L278.44 84.4749C278.44 84.4749 279.078 84.4399 279.295 84.3324C279.51 84.2249 279.94 83.2474 279.94 83.2474L283.868 85.8799C283.868 85.8799 283.705 90.3099 284.11 90.5799C284.515 90.8499 285.245 91.0124 285.515 90.8774C285.785 90.7424 285.813 86.9624 285.813 86.9624L287.515 88.5024C287.515 88.5024 289.96 88.2849 289.96 87.9599C289.96 87.6349 289.47 85.7999 289.273 85.6399C288.92 85.3549 287.365 85.4949 287.183 85.3974C287.038 85.3199 290.028 84.1274 290.028 83.6424C290.028 83.1574 289.05 82.3899 288.78 82.3624C288.51 82.3349 284.978 83.9124 284.978 83.9124L280.873 81.4824C280.873 81.4824 281.088 81.1049 281.088 80.9149C281.088 80.7249 280.82 80.4074 280.82 80.4074L285.03 78.1074C285.03 78.1074 288.73 79.4299 289.08 79.2699C289.43 79.1074 289.728 78.8099 289.728 78.5149C289.728 78.2199 286.603 76.7824 286.838 76.6524C287.018 76.5524 288.755 76.7599 289.025 76.6524C289.295 76.5449 290.155 74.3549 290.128 74.2474C290.1 74.1399 287.188 73.4124 287.188 73.4124L285.89 74.9524C285.89 74.9524 286.105 72.0349 285.783 71.7124C285.46 71.3899 284.588 71.5499 284.238 71.7924C283.888 72.0349 283.678 76.3299 283.678 76.3299L279.718 78.4774C279.718 78.4774 279.348 77.8824 279.13 77.7724C278.918 77.6549 278.458 77.6324 278.458 77.6324Z" fill="#95C7EC"/>
<path d="M280.11 79.0126L284.75 76.5926L284.68 71.6001C284.68 71.6001 283.96 71.7226 283.607 72.1926C283.255 72.6626 283.372 75.8201 283.372 75.8201L279.357 78.0026L280.11 79.0126Z" fill="#AFE3FF"/>
<path d="M285.87 75.975C285.87 75.975 287.39 74.085 287.683 73.99C288.173 73.83 290.065 74.495 290.065 74.495C290.065 74.495 290.275 73.9725 290.19 73.77C290.105 73.5675 287.778 72.5275 287.22 72.725C286.785 72.88 285.9 74.56 285.9 74.56L285.87 75.975Z" fill="#AFE3FF"/>
<path d="M285.74 77.685C285.64 77.6675 284.83 78.1975 284.83 78.1975C284.83 78.1975 287.235 79.655 287.94 79.6875C288.81 79.73 289.385 79.095 289.385 79.095C289.385 79.095 288.763 79.1125 288.31 78.945C287.573 78.67 285.74 77.685 285.74 77.685Z" fill="#AFE3FF"/>
<path d="M280.298 82.5225L279.728 83.6825C279.728 83.6825 283.155 85.815 283.17 85.9175C283.188 86.0175 283.085 89.7125 283.44 90.1325C283.793 90.5525 284.465 90.77 284.465 90.77C284.465 90.77 284.668 85.3275 284.65 85.2425C284.63 85.1575 280.298 82.5225 280.298 82.5225Z" fill="#AFE3FF"/>
<path d="M284.67 83.72C284.67 83.72 287.085 82.085 287.74 82.085C288.395 82.085 288.95 82.42 288.95 82.42L285.755 84.3525L284.67 83.72Z" fill="#AFE3FF"/>
<path d="M285.925 86.1775C285.84 86.4125 285.798 87.2925 285.798 87.2925C285.798 87.2925 286.583 89.14 287.135 89.34C287.69 89.5425 289.805 88.7525 289.975 88.55C290.143 88.3475 289.895 87.5275 289.895 87.5275C289.895 87.5275 288.223 88.19 287.723 88.0975C287.083 87.98 285.925 86.1775 285.925 86.1775Z" fill="#AFE3FF"/>
<path d="M275.758 78.71C275.515 78.9525 274.458 80.505 274.438 80.805C274.418 81.1075 275.595 83.12 275.878 83.28C276.16 83.44 278.435 83.28 278.435 83.28L279.603 80.8825C279.603 80.8825 278.575 78.6875 278.415 78.6475C278.255 78.6075 275.92 78.5475 275.758 78.71Z" fill="#AFE3FF"/>
<path d="M276.795 70.5149C276.955 70.5449 276.203 68.2774 276.203 68.2774L277.868 66.7049C277.868 66.7049 277.248 65.9399 276.928 65.9399C276.605 65.9399 274.853 67.5699 274.853 67.9549C274.853 68.3399 275.82 70.1349 275.82 70.1349C275.82 70.1349 276.49 70.4574 276.795 70.5149Z" fill="#AFE3FF"/>
<path d="M272.31 69.7324C272.31 69.7324 272.313 70.8649 272.675 71.2674C273.038 71.6699 275.618 72.9324 275.618 72.9324L275.683 77.7099L276.805 77.7049V72.1449C276.805 72.1449 274.57 71.0774 274.128 70.8774C273.685 70.6749 272.633 70.1549 272.31 69.7324Z" fill="#AFE3FF"/>
<path d="M270.905 76.9174L274.288 79.0524L274.833 78.2274L270.985 75.9724L270.905 76.9174Z" fill="#AFE3FF"/>
<path d="M268.492 74.9349C268.492 74.9349 269.207 75.6374 269.362 75.6324C269.662 75.6224 269.642 70.9449 269.642 70.9449C269.642 70.9449 269.065 70.7274 268.762 71.0099C268.457 71.2899 268.492 74.9349 268.492 74.9349Z" fill="#AFE3FF"/>
<path d="M268.128 76.0725C268.845 76.255 268.71 76.7575 268.61 76.9175C268.51 77.0775 265.228 80.26 265.228 80.26C265.228 80.26 264.603 79.9175 264.603 79.555C264.603 79.1925 267.45 76.85 267.3 76.815C267.183 76.79 265.145 77.1325 264.703 76.855C264.418 76.6775 263.628 73.705 263.778 73.305C263.898 72.9825 264.925 72.8875 264.925 72.8875C264.925 72.8875 265.288 75.545 265.57 75.6875C265.85 75.83 267.555 75.9275 268.128 76.0725Z" fill="#AFE3FF"/>
<path d="M273.425 81.4924L269.415 83.6924L270.423 84.5099L273.925 82.2549L273.425 81.4924Z" fill="#AFE3FF"/>
<path d="M268.852 85.195C268.822 85.5375 267.412 86.2275 267.292 86.33C267.172 86.43 265.852 86.1225 265.77 86.2425C265.69 86.3625 264.932 88.6925 264.79 88.83C264.77 88.85 263.967 88.6 263.907 88.4675C263.762 88.15 264.662 85.6375 265.065 85.275C265.467 84.9125 267.24 85.375 267.3 85.255C267.36 85.135 264.985 83.845 264.802 83.4425C264.622 83.04 265.387 82.395 265.387 82.395C265.387 82.395 268.892 84.73 268.852 85.195Z" fill="#AFE3FF"/>
<path d="M269.372 86.525C269.24 86.4325 268.542 87.36 268.542 87.36C268.542 87.36 268.787 90.3575 269.015 90.55C269.245 90.745 269.907 90.415 269.907 90.415C269.907 90.415 269.572 86.665 269.372 86.525Z" fill="#AFE3FF"/>
<path d="M275.8 84.4824C275.8 84.4824 275.837 88.2149 275.757 88.3549C275.677 88.4949 272.64 89.9374 272.212 90.4899C271.922 90.8649 271.997 91.8524 271.997 91.8524C271.997 91.8524 276.662 89.2224 276.762 89.1424C276.862 89.0624 276.785 84.4949 276.785 84.4949L275.8 84.4824Z" fill="#AFE3FF"/>
<path d="M281.782 92.1426C281.782 92.1426 278.575 90.1551 278.537 89.8876C278.5 89.6326 278.48 88.5276 278.48 88.5276C278.48 88.5276 281.297 90.5101 281.58 90.9726C281.862 91.4351 281.782 92.1426 281.782 92.1426Z" fill="#AFE3FF"/>
<path d="M276.1 93.39C276.15 93.9125 278.005 95.4025 278.005 95.4025C278.005 95.4025 277.417 96.0375 277.115 96.0575C276.812 96.0775 274.83 94.175 274.79 93.855C274.75 93.5325 275.797 91.5 275.797 91.5C275.797 91.5 276.267 91.275 276.622 91.2C276.847 91.15 276.052 92.8825 276.1 93.39Z" fill="#AFE3FF"/>
<path d="M278.75 80.6226C278.75 80.6226 278.452 81.2151 278.305 81.5501C278.157 81.8851 277.972 82.4576 277.972 82.4576C277.972 82.4576 276.582 82.5651 276.212 82.5501C275.73 82.5326 275.452 83.4026 276.157 83.4201C276.862 83.4376 278.547 83.4751 278.695 83.3651C278.842 83.2551 279.935 81.2526 279.935 80.8076C279.935 80.3626 278.972 79.1226 278.62 78.7701C278.21 78.3601 277.49 78.7701 277.897 79.4376C278.305 80.1051 278.75 80.6226 278.75 80.6226Z" fill="#FEFEFE"/>
<path d="M284.357 72.4076C283.792 72.3876 283.835 73.1526 283.855 74.0376C283.875 74.9226 283.935 75.5076 284.397 75.5076C284.962 75.5076 284.86 74.2801 284.86 73.7151C284.86 73.1526 284.942 72.4276 284.357 72.4076Z" fill="#FEFEFE"/>
<path d="M276.948 66.8899C277.275 67.2174 276.828 67.7749 276.645 67.9374C276.465 68.0974 275.96 68.4199 275.618 68.0974C275.275 67.7749 275.678 67.3124 276 67.0699C276.323 66.8274 276.705 66.6474 276.948 66.8899Z" fill="#FEFEFE"/>
<path d="M276.825 71.9649C276.302 71.9049 276.322 73.1924 276.342 74.7649C276.367 76.7799 276.342 77.7249 276.765 77.7049C277.247 77.6824 277.107 76.6774 277.107 74.5824C277.107 73.4324 277.227 72.0099 276.825 71.9649Z" fill="#FEFEFE"/>
<path d="M264.743 73.2725C264.06 73.485 264.36 74.32 264.54 74.925C264.655 75.31 265.005 76.4075 265.648 76.215C266.29 76.0225 265.91 75.1075 265.768 74.5225C265.63 73.9375 265.328 73.0925 264.743 73.2725Z" fill="#FEFEFE"/>
<path d="M284.075 87.3899C283.673 87.3899 283.633 88.1549 283.633 88.8399C283.633 89.5249 283.633 90.0274 284.095 90.0274C284.558 90.0274 284.478 89.0199 284.478 88.6574C284.478 88.2949 284.54 87.3899 284.075 87.3899Z" fill="#FEFEFE"/>
<path d="M276.785 84.47C276.442 84.485 276.402 85.255 276.402 86.765C276.402 88.275 276.32 89.1675 276.825 89.1425C277.227 89.1225 277.147 87.6125 277.147 86.585C277.147 85.5575 277.27 84.45 276.785 84.47Z" fill="#FEFEFE"/>
<path d="M270.302 84.485C270.505 84.72 271.54 84.0625 272.285 83.6525C273.18 83.16 274.172 82.6875 273.962 82.27C273.752 81.8525 272.705 82.5925 271.98 82.97C271.255 83.35 269.96 84.0875 270.302 84.485Z" fill="#FEFEFE"/>
<path d="M267.177 86.4424C266.96 86.6049 266.352 86.5024 266.09 86.7049C265.827 86.9074 265.772 87.5924 265.465 87.7124C265.002 87.8924 264.64 87.5724 264.88 86.9474C265.122 86.3224 265.202 85.8999 265.422 85.7399C265.645 85.5799 266.45 85.6199 266.772 85.6199C267.337 85.6174 267.5 86.1999 267.177 86.4424Z" fill="#FEFEFE"/>
</g>
<defs>
<clipPath id="clip0_15_2">
<rect width="320" height="160" fill="white"/>
</clipPath>
</defs>
</svg>
